<svg width="50" height="51" viewBox="0 0 50 51" fill="none" xmlns="http://www.w3.org/2000/svg">
<path d="M11.0772 32.7166C16.9571 27.5905 5.4988 22.1629 17.4095 6.78455L24.9478 0C24.9478 0 19.5202 14.926 25.2494 18.5444C30.9785 22.1629 32.637 17.0368 34.4462 12.2122C38.3661 22.0121 32.3643 27.5092 36.5569 30.3043C40.1753 32.7166 40.7784 31.3597 47.2614 21.7106C53.5937 36.6366 42.2861 50.5072 33.0893 50.2057C33.0893 50.2057 38.0644 44.0242 36.5569 37.6919C32.9383 39.1996 30.3753 40.255 28.717 39.8027C27.0587 39.3504 18.0427 19.6601 20.5756 27.7413C23.7416 37.8427 19.671 50.658 16.8064 50.9595C13.9418 51.261 6.1017 50.0549 1.57867 41.3104C-2.94436 32.5658 3.68965 15.0768 3.68965 15.0768C1.72967 26.6859 5.7186 37.3882 11.0772 32.7166Z" class="fire_icon"/>
</svg>
