<svg width="58" height="62" viewBox="0 0 58 62" fill="none" xmlns="http://www.w3.org/2000/svg">
<g filter="url(#filter0_d_18_281)">
<path d="M12.3411 38.1612C9.89555 34.9845 10.3534 30.5463 13.1882 27.7115L16.815 24.0847C19.6092 21.2905 23.9646 20.8069 27.0969 23.2161C29.4295 25.0103 32.2161 27.3295 34.8624 29.9759C37.8045 32.918 40.1691 36.2066 41.8473 38.8622C43.7486 41.8708 43.0749 45.7019 40.5583 48.2186L37.4006 51.3763C34.8656 53.9113 31.0003 54.5819 27.9476 52.7022C25.1664 50.9897 21.7585 48.6166 18.9901 45.8482C16.516 43.3742 14.1876 40.5597 12.3411 38.1612Z" fill="#D9D9D9"/>
<rect x="16.1273" y="29.9751" width="4.0478" height="9.56752" rx="2.0239" transform="rotate(-45 16.1273 29.9751)" fill="#2A363B"/>
<path fill-rule="evenodd" clip-rule="evenodd" d="M13.2996 18.0059C13.1583 19.7715 13.5898 21.7554 14.1296 23.259C14.2941 23.7173 14.0625 24.2345 13.599 24.3838C13.1986 24.5128 12.7637 24.3191 12.614 23.926C11.9576 22.2016 11.3974 19.8183 11.5722 17.6333C11.6728 16.3774 12.0198 15.1447 12.7745 14.1486C13.5379 13.1411 14.6835 12.4227 16.2818 12.1463C18.1974 11.815 19.6455 12.0814 20.8118 12.8209C21.9337 13.5324 22.6489 14.6003 23.229 15.5001C23.2768 15.5741 23.3237 15.6471 23.3698 15.719C23.9248 16.5826 24.3796 17.2904 25.0084 17.825C25.6248 18.3492 26.4725 18.7499 27.9032 18.7104C30.5064 18.6386 32.0538 16.5058 32.5702 13.7131C32.8239 12.3411 32.8067 10.8856 32.5592 9.60547C32.3844 8.70165 32.1054 7.93703 31.7666 7.35751C31.5408 6.97127 31.5563 6.45602 31.8854 6.15289C32.2098 5.854 32.7188 5.8705 32.9703 6.23298C33.6092 7.15402 34.0282 8.31417 34.2592 9.50881C34.55 11.0123 34.5658 12.6824 34.2759 14.2502C33.705 17.3371 31.8583 20.3412 28.189 20.4424C26.3652 20.4928 25.0365 19.9627 23.9968 19.0786C23.1136 18.3276 22.4897 17.3516 21.9695 16.5377C21.9154 16.453 21.8624 16.3701 21.8103 16.2893C21.2169 15.369 20.7207 14.6825 20.0358 14.2482C19.3953 13.842 18.441 13.5715 16.8009 13.8552C15.5546 14.0707 14.7399 14.6085 14.2078 15.3107C13.667 16.0244 13.3837 16.9551 13.2996 18.0059Z" fill="#ECECEC"/>
</g>
<defs>
<filter id="filter0_d_18_281" x="6.75439" y="5.94336" width="40.186" height="55.835" filterUnits="userSpaceOnUse" color-interpolation-filters="sRGB">
<feFlood flood-opacity="0" result="BackgroundImageFix"/>
<feColorMatrix in="SourceAlpha" type="matrix" values="0 0 0 0 0 0 0 0 0 0 0 0 0 0 0 0 0 0 127 0" result="hardAlpha"/>
<feOffset dy="4"/>
<feGaussianBlur stdDeviation="2"/>
<feComposite in2="hardAlpha" operator="out"/>
<feColorMatrix type="matrix" values="0 0 0 0 0 0 0 0 0 0 0 0 0 0 0 0 0 0 0.25 0"/>
<feBlend mode="normal" in2="BackgroundImageFix" result="effect1_dropShadow_18_281"/>
<feBlend mode="normal" in="SourceGraphic" in2="effect1_dropShadow_18_281" result="shape"/>
</filter>
</defs>
</svg>
